<!-- filepath: /Users/revanthbalineni/Desktop/React-experiments/fetch-frontend/public/fetch.svg -->
<svg xmlns="http://www.w3.org/2000/svg" viewBox="0 0 58 58">
  <path d="M47.717 58H10.172C4.586 58 0.025 53.414 0.025 47.798V10.046C0.025 4.43 4.586 -0.156 10.172 -0.156H47.717C53.303 -0.156 57.864 4.43 57.864 10.046V47.798C57.864 53.414 53.268 58 47.717 58Z" fill="#300D38" />
  <path d="M50.44 32.121C50.334 30.522 49.592 28.602 45.208 29.846C42.945 30.486 40.894 30.522 39.975 29.633C39.869 29.491 39.763 29.349 39.693 29.206C39.339 28.531 39.516 27.465 40.364 26.043C40.965 25.012 41.672 24.763 42.485 24.763C43.193 24.763 43.97 24.905 44.96 24.905C48.001 24.834 49.167 22.914 49.026 21.173C48.991 20.639 48.283 20.817 46.975 20.497C45.667 20.177 44.607 20.355 44.324 18.471C44.253 17.938 43.546 16.765 41.955 16.516C40.894 16.338 38.632 15.272 36.935 16.622L35.45 15.983C34.46 15.734 34.531 16.409 33.612 16.765C32.763 17.049 31.137 16.267 31.597 17.369C31.95 18.258 33.4 19.431 35.167 18.862C34.107 24.158 29.051 25.367 24.844 25.189C19.223 24.976 14.874 20.213 15.086 14.596C15.157 12.961 14.627 12.499 14.097 13.352C13.955 13.601 13.778 13.992 13.672 14.49C13.637 14.667 13.566 14.845 13.531 15.023C13.071 17.369 13.637 22.061 17.526 25.118C17.526 25.118 16.218 26.185 15.794 28.175C15.546 29.313 15.652 30.237 15.723 30.699C15.758 30.912 15.794 31.055 15.794 31.055C16.147 32.797 12.93 33.97 11.516 34.219C11.41 34.219 11.304 34.254 11.198 34.254C10.985 34.254 10.809 34.254 10.632 34.254C10.384 34.254 10.172 34.219 9.996 34.183C9.147 34.112 8.546 34.254 7.98 36.352C7.203 39.337 4.975 38.662 4.445 39.515C3.597 40.866 4.869 41.861 6.46 41.968C7.415 42.003 8.511 41.754 9.324 41.008C12.081 38.52 10.773 37.382 13.496 37.596C13.849 37.631 14.273 37.667 14.768 37.738C17.809 38.129 19.965 38.768 22.935 35.534C22.935 35.534 23.182 35.143 23.536 34.858C23.677 34.716 23.854 34.609 24.066 34.538C24.137 34.467 24.526 34.503 24.597 34.503C25.763 34.787 28.344 36.209 31.278 35.712C32.445 35.285 33.506 34.609 34.354 33.756" fill="#FBA919" />
</svg>